<?xml version="1.0" encoding="UTF-8" standalone="no"?>
<!-- Created with Inkscape (http://www.inkscape.org/) -->

<svg
   version="1.1"
   id="svg427"
   width="10.5in"
   height="5.3000002in"
   viewBox="0 0 1008 508.80002"
   sodipodi:docname="adcacoal-branco.svg"
   inkscape:version="1.1 (c68e22c387, 2021-05-23)"
   xmlns:inkscape="http://www.inkscape.org/namespaces/inkscape"
   xmlns:sodipodi="http://sodipodi.sourceforge.net/DTD/sodipodi-0.dtd"
   xmlns="http://www.w3.org/2000/svg"
   xmlns:svg="http://www.w3.org/2000/svg">
  <defs
     id="defs431" />
  <sodipodi:namedview
     id="namedview429"
     pagecolor="#ffffff"
     bordercolor="#666666"
     borderopacity="1.0"
     inkscape:pageshadow="2"
     inkscape:pageopacity="0.0"
     inkscape:pagecheckerboard="0"
     showgrid="false"
     inkscape:zoom="0.82225434"
     inkscape:cx="979.6239"
     inkscape:cy="411.67311"
     inkscape:window-width="1920"
     inkscape:window-height="1001"
     inkscape:window-x="-9"
     inkscape:window-y="-9"
     inkscape:window-maximized="1"
     inkscape:current-layer="g433"
     units="in"
     inkscape:document-units="in" />
  <g
     inkscape:groupmode="layer"
     inkscape:label="Image"
     id="g433">
    <path
       style="fill:#ffffff"
       d="m 589.6469,500.13643 c -11.69114,-4.16777 -16.32408,-16.72424 -11.67829,-31.65118 2.28878,-7.35386 10.95815,-20.58399 19.40569,-29.61458 l 5.86465,-6.26943 h -6.90456 c -17.0719,0 -31.57802,-7.88659 -36.26518,-19.71642 -2.02277,-5.10524 -1.01751,-17.77108 1.88766,-23.78358 6.79204,-14.05671 26.23194,-26.02408 48.81424,-30.05046 8.51383,-1.518 40.1251,-1.9048 36.73853,-0.44954 -1.1,0.47269 -6.5,0.89371 -12,0.93561 -19.93222,0.15184 -37.61113,4.43533 -49.32255,11.95052 -6.18458,3.96864 -17.01561,15.2091 -20.62402,21.40367 -3.67263,6.3048 -4.58937,15.72487 -2.0509,21.07428 4.4076,9.28833 15.9416,15.32455 31.1969,16.32663 l 9.31555,0.61192 6.24251,-5.9178 c 34.60406,-32.80411 79.47639,-58.1641 106.3061,-60.07982 9.66893,-0.69039 14.72061,1.12608 17.11902,6.15561 2.60115,5.45466 0.39862,10.68953 -8.02696,19.07812 -10.63474,10.58805 -21.21918,16.83111 -43.72634,25.79126 -19.2454,7.66165 -34.84689,11.63004 -60.10541,15.28839 -3.12079,0.45201 -5.61563,2.52259 -16.51552,13.70702 -24.52157,25.16172 -30.51619,40.13886 -19.82336,49.52729 4.22149,3.70652 9.02772,5.13438 17.30714,5.14172 22.99679,0.0204 53.89674,-15.57996 61.81665,-31.20914 4.03694,-7.96653 2.60515,-13.54446 -4.20738,-16.39091 -14.44804,-6.03678 -50.50271,10.99064 -64.95216,30.67474 -3.62778,4.94202 -5.44927,6.12953 -5.44927,3.55262 0,-1.9189 11.74346,-14.4091 18.31294,-19.47741 8.53101,-6.58163 20.43328,-12.97041 29.40354,-15.78294 6.71406,-2.10513 9.70141,-2.50876 16.33727,-2.20741 7.90879,0.35916 8.20987,0.466 11.53352,4.09272 5.29279,5.77543 4.38804,13.80967 -2.54248,22.57743 -6.84635,8.66128 -27.31994,20.36687 -42.53895,24.32126 -8.51747,2.21312 -25.16428,2.42333 -30.86858,0.38981 z m 46.19075,-73.58053 c 46.7739,-8.19644 91.51894,-31.91163 95.61528,-50.67678 0.5799,-2.6565 0.25962,-3.66588 -1.8245,-5.75 -2.24311,-2.24311 -3.352,-2.52788 -9.84343,-2.52788 -18.05309,0 -37.34363,9.33064 -64.85077,31.36767 -9.98099,7.99615 -32.92459,28.36396 -32.92459,29.22827 0,0.68315 1.74596,0.47592 13.82801,-1.64128 z m 30.21095,72.85678 c -2.70141,-2.89962 -2.74438,-10.50837 -0.0888,-15.71384 3.03601,-5.95107 11.14304,-12.47568 22.53715,-18.1381 8.35005,-4.14964 11.7309,-5.2876 16.95528,-5.70696 7.11671,-0.57126 9.55736,0.46709 9.55736,4.06607 0,1.87138 0.32177,1.76185 3.29761,-1.12244 2.77567,-2.69029 4.05508,-3.19617 8.08333,-3.19617 2.63215,0 4.63573,0.41396 4.45239,0.91991 -0.18333,0.50595 -7.42083,8.37014 -16.08333,17.47598 -15.3766,16.16357 -17.85241,19.86011 -14.23204,21.24938 0.83488,0.32037 2.94762,-0.01 4.69499,-0.73348 4.23112,-1.75258 21.02789,-14.91372 27.28705,-21.38082 8.46256,-8.74364 24.14309,-17.53097 31.28314,-17.53097 4.30343,0 7.21691,2.29863 7.21691,5.69388 0,2.35091 -3.27329,6.84683 -6.07755,8.34762 -2.71449,1.45276 -5.92245,-0.46554 -5.92245,-3.5415 0,-3.08372 3.20749,-4.99451 5.93426,-3.53518 2.77575,1.48553 3.24492,1.3046 2.88529,-1.11269 -0.51801,-3.48184 -2.97318,-4.3476 -6.96175,-2.45489 -8.21256,3.89711 -30.8578,28.29595 -30.8578,33.24736 0,9.1111 25.0825,-1.95924 41.95906,-18.51892 7.75435,-7.60875 14.1024,-11.81895 23.30146,-15.45413 17.0608,-6.7419 23.84357,-0.25326 14.30276,13.68253 -3.53972,5.17029 -4.12972,6.59832 -2.91822,7.06321 3.07904,1.18154 4.49618,0.44548 11.47786,-5.9616 9.52862,-8.74442 24.91751,-16.44843 34.37191,-17.20734 7.06207,-0.56687 9.50517,0.4793 9.50517,4.07026 0,1.87138 0.32177,1.76185 3.29761,-1.12244 2.77567,-2.69029 4.05508,-3.19617 8.08333,-3.19617 2.63215,0 4.63573,0.41436 4.45239,0.92079 -0.18333,0.50644 -7.08333,7.98886 -15.33333,16.6276 -16.59721,17.37929 -16.46307,17.21871 -16.48469,19.73299 -0.0227,2.64694 2.72279,3.21393 6.60297,1.36361 3.8983,-1.85897 28.3677,-20.64359 41.88172,-32.15167 4.95,-4.21525 11.35574,-9.01481 14.23498,-10.66569 2.96386,-1.6994 8.54382,-6.64623 12.86198,-11.40259 9.25579,-10.19507 33.77872,-32.82344 45.98341,-42.43089 15.87488,-12.49659 27.58498,-16.82889 32.41969,-11.99415 2.2555,2.25554 2.4447,3.70024 0.9865,7.53552 -1.4203,3.73579 -12.00081,14.54635 -21.48651,21.95384 -14.22815,11.11085 -39.72206,26.19895 -49.7747,29.4582 -3.91329,1.26876 -16.35591,14.069 -32.39026,33.3212 -10.80225,12.9701 -12.65865,17.73124 -6.91353,17.73124 4.61761,0 14.96113,-5.99945 25.18003,-14.60494 5.54079,-4.66599 6.8976,-5.43191 6.89992,-3.89506 0.003,2.17164 -18.63557,16.27569 -25.05127,18.95634 -5.06454,2.1161 -10.73658,1.98973 -12.79525,-0.28508 -4.82246,-5.32876 1.00125,-17.51045 15.72686,-32.89652 2.75053,-2.87389 4.80233,-5.41091 4.55956,-5.63782 -0.24278,-0.2269 -4.94141,3.40098 -10.44141,8.06197 -5.5,4.66099 -12.06723,9.89801 -14.59385,11.63782 -2.52661,1.73981 -8.37661,6.23211 -13,9.98289 -13.95431,11.32063 -20.55649,13.37953 -23.87218,7.4446 -1.37568,-2.46242 -1.36953,-3.17765 0.0615,-7.15724 l 1.58994,-4.42144 -6.45424,4.94691 c -17.73982,13.59683 -27.94522,13.3698 -27.07557,-0.6023 0.33137,-5.32387 0.24995,-5.53338 -2.15562,-5.54681 -1.375,-0.008 -3.14664,-0.42311 -3.93697,-0.9232 -1.04477,-0.66109 -2.81884,0.34004 -6.5,3.66803 -13.73636,12.4185 -26.68272,16.73024 -31.59277,10.52185 -1.7888,-2.26181 -2.07566,-3.59897 -1.61588,-7.53226 0.6199,-5.30296 0.92735,-5.29687 -6.35438,-0.12581 -8.60714,6.11229 -16.81073,9.76676 -22.91582,10.20836 -5.38173,0.38928 -5.91901,0.2258 -8.02435,-2.44154 -1.86615,-2.3643 -2.1819,-3.76738 -1.82556,-8.11221 0.38687,-4.71717 0.2693,-5.11492 -1.15171,-3.89641 -17.00019,14.57767 -25.42605,17.89843 -29.03277,11.44225 -1.35953,-2.43362 -1.34621,-3.15657 0.1316,-7.14392 l 1.64421,-4.43629 -6.50569,4.92414 c -12.76091,9.6587 -21.08,12.18432 -25.28095,7.67513 z m 10.41318,-1.22699 c 10.74197,-4.48829 33.47123,-23.79219 35.59659,-30.23211 2.67864,-8.11636 -5.43792,-8.19625 -17.37993,-0.17107 -7.26397,4.88148 -25.197,22.38963 -26.51586,25.88761 -1.97626,5.24163 1.73224,7.25942 8.2992,4.51557 z m 107.223,-2.12634 c 2.93805,-1.43745 7.58444,-4.38616 10.3253,-6.55269 6.75653,-5.34073 15.79744,-16.49875 17.22265,-21.25569 1.04107,-3.47477 0.95761,-4.04647 -0.77851,-5.33296 -4.59968,-3.40842 -13.90984,2.02603 -28.37014,16.56001 -11.02454,11.08071 -14.2258,16.03099 -12.05693,18.64432 1.79704,2.1653 6.45268,1.46207 13.65763,-2.06299 z m 40.82486,1.63824 c 11.0508,-5.13787 32.52988,-23.62684 34.5465,-29.73725 2.68698,-8.14163 -5.48568,-8.20647 -17.3777,-0.13789 -7.80032,5.29242 -23.98029,20.87297 -25.99416,25.03114 -3.00495,6.20455 1.07842,8.4458 8.82536,4.844 z m 120.77283,-59.24784 c 26.24162,-14.57095 46.75502,-30.43623 52.44632,-40.56246 2.02231,-3.5982 2.08181,-4.12528 0.69031,-6.11192 -3.15501,-4.50442 -12.02591,-1.40329 -24.40941,8.53316 -7.75308,6.22099 -30.51066,29.07877 -39.85211,40.02753 l -5.31953,6.23482 3.67383,-1.53502 c 2.02061,-0.84427 7.76737,-3.80801 12.77059,-6.58611 z m -909.428028,8.72331 c -8.31652,-3.18873 -11.8448,-7.37914 -11.8448,-14.06761 0,-7.16975 9.4997,-11.89112 12.16328,-6.04517 2.54443,5.5844 -4.94725,10.19985 -8.58816,5.29096 -1.64308,-2.2153 -1.66104,-2.19025 -1.16472,1.62403 0.61345,4.71435 2.81579,7.35198 8.0896,9.68851 9.2484,4.09745 20.06391,3.33496 31.5,-2.22075 5.004546,-2.43124 9.030746,-5.71858 17.499996,-14.28851 9.15536,-9.2642 12.59309,-13.69455 20.500002,-26.41922 16.68663,-26.85398 21.12641,-33.26111 28.23016,-40.7395 6.5091,-6.8524 10.13013,-9.3676 11.50574,-7.992 0.32184,0.32185 -0.11077,1.37544 -0.96136,2.34131 -3.31631,3.76574 -7.0114,12.96172 -12.28971,30.5854 -8.69084,29.01775 -13.65307,40.42367 -21.24025,48.82177 -1.93878,2.146 -3.31145,4.11543 -3.05037,4.37651 0.81788,0.81788 9.14261,-6.20108 13.91491,-11.73229 2.5128,-2.91239 12.38248,-15.60328 21.93263,-28.20197 18.86065,-24.88125 27.00003,-33.83344 36.82849,-40.50621 17.91334,-12.16179 38.02696,-13.49883 49.3383,-3.27972 5.92901,5.35651 8.21057,10.44029 8.25447,18.39264 0.0211,3.81752 -0.4645,7.20149 -1.12867,7.86566 -0.88755,0.88755 -1.0365,-0.25868 -0.62433,-4.80421 0.65343,-7.2062 -0.80417,-12.16016 -4.97585,-16.91144 -6.72411,-7.65835 -18.42491,-10.82582 -29.50512,-7.9872 -18.14468,4.64845 -30.45563,15.414 -57.28765,50.09626 -22.02685,28.47125 -37.02968,42.7356 -47.441392,45.10618 -2.9021,0.66076 -2.83008,0.50767 2.20694,-4.6911 6.346842,-6.55066 9.547652,-13.33588 19.281652,-40.87415 6.77529,-19.16784 11.83879,-30.67046 17.16793,-39 l 2.23926,-3.5 -2.18965,1.89753 c -3.65731,3.16939 -13.45379,18.19271 -23.1782,35.54475 -5.06801,9.04326 -11.00412,19.07752 -13.191352,22.29837 -8.21021,12.09007 -22.4393,23.58966 -34.678776,28.0265 -7.21588,2.61578 -22.04595,3.32417 -27.313,1.30467 z m 72.726118,0.54292 c -1.41869,-2.29548 0.75304,-3.28209 6.79083,-3.08503 8.76763,0.28615 8.84413,0.26963 13.71681,-2.96285 6.15775,-4.08498 10.03483,-9.58998 22.93631,-32.56686 14.22058,-25.32612 21.49084,-35.93665 29.99131,-43.77063 7.36048,-6.78337 17.62001,-13.46836 18.77159,-12.23136 0.39723,0.42669 0.1495,0.9801 -0.5505,1.2298 -4.06126,1.44873 -11.41749,7.81375 -15.99366,13.83861 -2.89651,3.81347 -9.55563,15.37391 -14.79803,25.68986 -15.50682,30.51415 -23.34011,40.73413 -37.15976,48.4818 l -5.77582,3.23807 7.0685,0.0119 c 3.88767,0.007 9.45843,-0.69781 12.37945,-1.56526 5.57165,-1.65461 7.11503,-3.01554 25.05205,-22.09058 6.04102,-6.42429 9.1274,-8.78862 15.8658,-12.15404 11.12013,-5.55382 17.0623,-5.45978 17.17424,0.2718 0.0346,1.77063 0.24335,1.67524 1.53193,-0.7 1.28417,-2.36708 2.11406,-2.75 5.95997,-2.75 2.45743,0 4.46806,0.20461 4.46806,0.45468 0,0.25008 -3.16711,5.6988 -7.03802,12.10827 -3.8709,6.40947 -8.17223,13.89184 -9.55849,16.6275 -2.79598,5.5176 -2.86868,10.10943 -0.16817,10.6215 2.45235,0.46501 11.74852,-8.62274 19.49752,-19.06037 7.11169,-9.57921 12.57229,-14.12762 22.58759,-18.81435 7.727,-3.61589 12.52215,-3.67174 14.25953,-0.16606 1.0369,2.09224 2.01576,0.79238 12.42535,-16.5 6.21487,-10.32415 11.79363,-19.23805 12.39723,-19.80869 0.608,-0.57479 2.99979,-0.79778 5.36285,-0.5 l 4.2654,0.53752 -16.1901,26 c -19.01028,30.52901 -24.80112,40.97542 -24.82398,44.78138 -0.0634,10.56179 15.66094,-4.20813 30.49798,-28.64674 l 4.6351,-7.63464 h 4.4251 c 2.43381,0 4.42511,0.22386 4.42511,0.49747 0,0.27361 -3.90571,6.88011 -8.67936,14.68111 -10.12779,16.55062 -12.17038,21.40025 -9.94906,23.62158 3.64268,3.64268 12.4115,-5.67054 24.62842,-26.15746 l 7.5,-12.57697 4.80902,-0.0329 c 3.58714,-0.0245 4.61813,0.28473 4.05775,1.21713 -0.41319,0.6875 -3.54103,5.77881 -6.95074,11.31402 -11.61018,18.84757 -14.52116,26.44536 -10.41603,27.18628 3.96688,0.71596 13.39008,-8.82642 23.59524,-23.89366 9.66343,-14.26742 16.69334,-19.4252 20.83333,-15.28521 1.97324,1.97324 2.04037,8.37047 0.13568,12.92904 -1.34326,3.21488 -1.32268,3.36561 0.31954,2.34003 0.96541,-0.60291 2.80324,-3.0716 4.08407,-5.48598 2.99723,-5.64977 9.29501,-11.35445 12.53502,-11.35445 5.76808,0 0.38814,7.56109 -9.22375,12.96328 -2.92706,1.64509 -4.24832,3.13267 -4.67433,5.26271 -0.80328,4.01643 0.21622,7.58243 2.36253,8.26364 3.23747,1.02754 6.83694,-1.31701 15.72382,-10.24185 9.76858,-9.81031 19.02671,-15.22599 27.40511,-16.03105 3.84635,-0.36959 5.0607,-0.0598 6.87432,1.75385 3.73974,3.73974 1.14269,9.39805 -5.98268,13.03479 -3.26676,1.66732 -14.06966,5.1083 -20.10904,6.40519 -1.98431,0.42611 -3.15248,1.798 -4.8081,5.6466 -5.96152,13.85791 3.58548,18.39624 16.77204,7.97286 5.62117,-4.44328 16.90866,-18.43043 22.17778,-27.48211 3.44917,-5.92523 3.61652,-6.05409 8.25,-6.3527 2.60118,-0.16764 4.72942,-0.0813 4.72942,0.19185 0,0.27316 -4.08417,7.28242 -9.07593,15.57615 -10.12879,16.82881 -11.71146,20.67797 -9.43727,22.95216 1.29844,1.29844 1.88043,1.27994 4.89049,-0.15546 3.94286,-1.88022 13.56817,-12.70583 20.06438,-22.56646 2.46326,-3.73899 6.7212,-9.1371 9.4621,-11.9958 5.29052,-5.51791 8.59376,-6.55726 11.5248,-3.62622 1.97324,1.97324 2.04037,8.37047 0.13568,12.92904 -1.34326,3.21488 -1.32268,3.36561 0.31954,2.34003 0.96541,-0.60291 2.80324,-3.0716 4.08407,-5.48598 2.99723,-5.64984 9.29501,-11.35452 12.53502,-11.35452 5.76808,0 0.38814,7.56109 -9.22375,12.96328 -2.92706,1.64509 -4.24832,3.13267 -4.67433,5.26271 -0.80328,4.01643 0.21622,7.58243 2.36253,8.26364 3.19438,1.01386 6.73053,-1.25347 15.21096,-9.75301 14.94741,-14.9811 33.6764,-21.77685 33.86175,-12.28662 0.0346,1.77063 0.24335,1.67524 1.53193,-0.7 1.28417,-2.36708 2.11406,-2.75 5.95997,-2.75 2.45743,0 4.46806,0.20461 4.46806,0.45468 0,0.25008 -3.16711,5.6988 -7.03802,12.10827 -3.8709,6.40947 -8.17223,13.89184 -9.55849,16.6275 -2.79598,5.5176 -2.86868,10.10943 -0.16817,10.6215 2.26355,0.42921 11.54336,-8.36111 18.02973,-17.07868 2.76915,-3.7217 5.2592,-6.54235 5.53344,-6.26811 0.87533,0.87533 -5.06336,8.62836 -12.79849,16.70859 -6.70489,7.00402 -7.88986,7.83416 -11.17742,7.83043 -5.12058,-0.006 -8.11779,-3.82448 -7.64708,-9.74291 0.1864,-2.3437 0.27157,-4.26127 0.18927,-4.26127 -0.0823,0 -1.88555,2.28062 -4.00721,5.06804 -7.02837,9.23383 -14.02897,11.48805 -18.64397,6.00343 -2.97275,-3.53291 -4.04084,-8.4436 -2.78724,-12.81467 l 0.92593,-3.22852 -3.65828,2.48586 c -3.90601,2.65421 -9.02673,3.25313 -10.994,1.28586 -0.66,-0.66 -1.2,-2.99419 -1.2,-5.18709 v -3.98709 l -2.78286,2.66615 c -1.53058,1.46639 -5.24308,6.72403 -8.25,11.68365 l -5.46714,9.0175 -4.72455,0.003 -4.72454,0.003 8.32947,-13.75 c 12.38794,-20.44956 14.09655,-24.21917 11.66012,-25.72497 -1.44138,-0.89082 -8.31665,5.75703 -12.66056,12.24176 -7.48646,11.17606 -16.6613,22.42448 -20.64367,25.30929 -9.649,6.98971 -18.07172,-0.0799 -13.79166,-11.57608 0.9732,-2.614 0.50179,-2.32728 -3.66385,2.22843 -6.698,7.3252 -14.49114,12.27157 -19.3342,12.27157 -8.402,0 -13.39456,-5.42118 -12.7916,-13.88977 l 0.34504,-4.84615 -3.48213,2.36796 c -3.75152,2.55115 -8.88089,3.10494 -10.81787,1.16796 -0.66,-0.66 -1.2,-2.99419 -1.2,-5.18709 v -3.98709 l -2.78286,2.66615 c -1.53058,1.46639 -5.24308,6.72403 -8.25,11.68365 l -5.46714,9.0175 -4.72455,0.003 -4.72454,0.003 8.32947,-13.75 c 12.38794,-20.44956 14.09655,-24.21917 11.66012,-25.72497 -1.72866,-1.06837 -8.8588,6.47013 -15.43954,16.3238 -7.58597,11.35884 -18.11235,22.73945 -21.91552,23.69398 -6.27133,1.57401 -11.56109,-3.41455 -10.30109,-9.71454 0.52083,-2.60418 -0.0484,-2.23898 -5.67138,3.6385 -5.02888,5.25649 -6.84774,6.53323 -9.30734,6.53323 -5.25769,0 -9.10523,-6.07983 -7.46333,-11.79343 0.62846,-2.18694 -0.61357,-1.31466 -6.46935,4.54343 -6.26762,6.27009 -7.72565,7.25 -10.78747,7.25 -4.91969,0 -7.97622,-3.89911 -7.51719,-9.58943 l 0.33171,-4.11197 -6.71539,6.8507 c -5.66207,5.77615 -7.24247,6.8507 -10.07569,6.8507 -2.23768,0 -4.10059,-0.78801 -5.57621,-2.35873 -2.69734,-2.87119 -4.49723,-8.91742 -3.5464,-11.91319 0.4018,-1.26597 -2.65834,1.30283 -7.19352,6.03852 -7.08862,7.40203 -8.26747,8.24133 -11.57021,8.23758 -5.12058,-0.006 -8.11779,-3.82448 -7.64708,-9.74291 0.1864,-2.3437 0.27157,-4.26127 0.18927,-4.26127 -0.0823,0 -1.88555,2.28062 -4.00721,5.06804 -6.69988,8.80225 -13.73714,11.35017 -18.20713,6.59209 -2.77581,-2.95472 -4.36068,-8.30981 -3.55903,-12.02552 0.5548,-2.57154 -0.0335,-2.2056 -5.7366,3.56841 -9.10965,9.22291 -13.94827,11.29998 -25.6048,10.99137 -5.0875,-0.13469 -10.4875,-0.26882 -12,-0.29807 -1.5125,-0.0292 -5.05403,0.25876 -7.87007,0.64 -3.38828,0.45872 -5.35309,0.31612 -5.80901,-0.42158 z m 74.79745,-7.39517 c 7.13336,-7.30647 15.65151,-19.5863 18.18116,-26.21008 1.57013,-4.11134 1.59936,-4.78917 0.26407,-6.12447 -2.71878,-2.71878 -6.86238,-0.55205 -15.31793,8.00992 -11.62268,11.76895 -18.00237,24.9555 -14.00667,28.9512 2.70769,2.70769 4.43677,1.97238 10.87937,-4.62657 z m 51.38826,0.95835 c 5.34544,-5.15798 16.88849,-21.9601 18.69338,-27.21019 1.53122,-4.45402 0.59747,-7.46773 -2.31375,-7.46773 -5.33277,0 -18.01752,12.65235 -24.02807,23.96667 -3.93368,7.40482 -4.79451,12.20416 -2.58524,14.41342 2.29764,2.29764 5.04632,1.30327 10.23368,-3.70217 z m 245.61174,-0.95835 c 7.13336,-7.30647 15.65151,-19.5863 18.18116,-26.21008 1.57013,-4.11134 1.59936,-4.78917 0.26407,-6.12447 -2.71878,-2.71878 -6.86238,-0.55205 -15.31793,8.00992 -11.62268,11.76895 -18.00237,24.9555 -14.00667,28.9512 2.70769,2.70769 4.43677,1.97238 10.87937,-4.62657 z m -98.86837,-18.63829 c 10.00605,-4.57431 16.83591,-12.86394 12.09695,-14.68245 -3.21926,-1.23535 -14.6334,7.72572 -21.64787,16.99542 -1.33313,1.76174 -1.25907,1.84303 1.05876,1.1621 1.37069,-0.40268 5.19216,-1.96646 8.49216,-3.47507 z M 50.346472,400.08688 c -11.86583,-7.11248 -10.82065,-25.83329 2.25417,-40.37564 9.33753,-10.38557 23.333916,-17.11 35.613206,-17.11 7.23529,0 11.750252,1.96003 14.245572,6.18427 2.64769,4.48219 2.20523,10.15572 -1.46004,18.72142 -2.5757,6.01939 -2.9713,7.83937 -2.11333,9.72241 2.44058,5.35648 10.29327,3.39421 17.02595,-4.25452 4.21205,-4.78513 5.81476,-5.63329 4.01283,-2.12358 -1.67883,3.26994 -6.99275,8.69933 -10.11553,10.33532 -6.05728,3.17335 -12.546272,0.84155 -14.902222,-5.35507 -1.23768,-3.25536 -0.43273,-6.91934 3.213302,-14.6263 1.58823,-3.35717 2.88804,-7.1369 2.88847,-8.3994 0.001,-3.49044 -4.121092,-6.95032 -9.185902,-7.70984 -11.0953,-1.66384 -25.338996,4.09467 -35.878846,14.50529 -8.06707,7.96815 -11.24938,14.20112 -11.74291,23 -0.31036,5.53335 -0.0171,7.00683 1.97193,9.90805 4.03381,5.88374 7.22281,7.59252 14.15985,7.58733 7.691676,-0.006 15.820196,-3.69809 21.164946,-9.61409 2.01696,-2.23253 3.96971,-3.75267 4.33946,-3.37809 1.33294,1.35039 -11.485,12.19201 -16.39075,13.86357 -7.150266,2.43634 -14.100486,2.11571 -19.100156,-0.88113 z m 365.147628,-2.5346 c -1.32269,-4.16742 4.70506,-9.2435 9.0133,-7.59027 3.9759,1.52569 -0.65605,9.63923 -5.50295,9.63923 -2.00456,0 -3.05455,-0.61287 -3.51035,-2.04896 z m 420.01554,-6.33703 c -49.83206,-20.55 -83.19278,-52.16493 -93.58223,-88.685 -3.05456,-10.73711 -3.31916,-30.79527 -0.53333,-40.42901 5.48736,-18.97596 14.5407,-36.99465 34.66847,-69 5.81669,-9.24917 39.94709,-66.46546 39.94709,-66.96741 0,-0.24452 1.4064,-2.82688 3.12533,-5.73858 5.221,-8.84386 16.51979,-31.754344 20.31474,-41.192024 1.96787,-4.893906 4.67176,-12.993916 6.00865,-18.000006 6.17148,-23.10959 3.80837,-38.0141 -8.59236,-54.1933653 -5.22985,-6.823398 -5.45084,-8.912825 -0.27929,-2.640594 6.50411,7.8883943 18.4444,24.2277593 26.11178,35.7319693 25.63404,38.461516 38.14549,69.23551 35.90357,88.31075 -1.9717,16.77613 -12.75374,37.35394 -38.08659,72.68926 -26.73765,37.2948 -39.02121,58.92088 -46.96907,82.69237 -4.47163,13.37433 -5.94284,23.09928 -5.13148,33.91986 1.62264,21.63987 11.69995,42.64188 31.5504,65.7538 4.42437,5.15131 8.04432,9.76381 8.04432,10.25 0,1.68836 -4.54444,0.77874 -12.5,-2.50202 z m 56.90335,-8.27751 c -1.93637,-10.32172 2.25403,-35.52939 8.10586,-48.76141 4.46761,-10.10206 13.80822,-22.82092 30.69944,-41.80264 20.76279,-23.33244 30.58867,-42.09678 36.2895,-69.30157 2.4651,-11.76348 2.256,-30.22995 -0.429,-37.88496 -1.14088,-3.25274 -1.92091,-6.06749 -1.7334,-6.25501 0.18752,-0.18751 1.56566,1.79882 3.0625,4.41408 1.4969,2.61526 5.3999,9.25501 8.6734,14.75501 10.5606,17.74398 13.548,29.46231 12.6114,49.46847 -1.4129,30.17616 -12.745,51.97236 -41.08936,79.03153 -32.12317,30.66665 -42.8766,42.12102 -48.09369,51.2286 -2.75,4.80072 -5.54211,8.73822 -6.20469,8.75 -0.66257,0.0118 -1.51396,-1.62717 -1.89196,-3.6421 z M 436.00964,369.98159 c -7.0738,-1.37968 -13.85156,-3.82464 -16.80484,-6.06204 -2.8242,-2.13962 -3.2605,-3.02852 -3,-6.11213 0.24627,-2.91509 0.9773,-4.00203 3.80484,-5.65728 3.01755,-1.76647 5.0852,-2.03319 15,-1.93495 11.17663,0.11075 14.7984,0.67061 41.5,6.41516 7.31358,1.57344 12.33349,2.04523 18.68624,1.75621 7.82642,-0.35606 9.55868,-0.82579 17.5,-4.74539 7.64697,-3.77431 10.34218,-5.88517 20.35922,-15.94507 14.32822,-14.38952 23.61274,-28.04649 42.21438,-62.09486 31.33426,-57.3541 55.91423,-92.87474 84.53994,-122.16912 l 10.42558,-10.66911 -6.36268,-4.72786 c -22.22234,-16.51256 -57.04594,-23.71062 -89.72096,-18.5454 -6.21862,0.98304 -6.94618,1.55521 -4.90235,3.85536 4.87337,5.48452 10.80695,18.21502 13.86908,29.75613 2.557,9.63725 2.53784,28.89637 -0.0403,40.5 -8.07787,36.35687 -31.44544,67.70001 -61.56816,82.58194 -13.2883,6.56499 -23.24334,8.76899 -36.93773,8.17781 -13.05893,-0.56374 -19.82957,-2.74154 -29.27371,-9.41597 -22.07818,-15.60327 -26.33353,-49.22428 -10.31251,-81.47788 10.01887,-20.17003 27.67373,-39.19094 49.73699,-53.5854 10.97075,-7.15752 30.48624,-16.40566 42.78696,-20.2762 15.3409,-4.82717 14.8586,-4.41476 8.5,-7.26828 -12.17961,-5.4658 -16.32197,-6.2037 -34.5,-6.1457 -15.53278,0.0496 -17.77676,0.28878 -26,2.7717 -18.53683,5.59699 -33.41241,14.53107 -46.98622,28.21931 -19.48345,19.64769 -33.97766,47.43543 -39.07795,74.91867 -2.67129,14.39449 -3.86772,19 -4.93583,19 -2.24828,0 -1.6452,-14.52681 1.05321,-25.3694 7.04614,-28.3124 20.34859,-52.94902 38.44679,-71.20485 14.7722,-14.90087 30.88929,-24.65791 50.5,-30.57193 8.25626,-2.48985 10.44616,-2.71941 26.5,-2.77796 20.03234,-0.073 24.2374,0.77586 39.86381,8.04764 5.58815,2.60046 10.22516,4.1594 11.5,3.86623 6.06311,-1.39428 26.7437,-2.16738 37.66948,-1.4082 26.97102,1.8741 50.7081,9.85842 68.05186,22.89027 2.94856,2.21551 5.59814,4.0241 5.88794,4.01908 0.2898,-0.005 4.57691,-2.92646 9.52691,-6.49211 14.30839,-10.30678 32.38839,-19.01038 34.69623,-16.70254 0.6828,0.6828 -2.03139,3.04778 -8.34206,7.26877 -9.28311,6.20914 -22.62091,16.78125 -26.23962,20.79864 -1.86572,2.07127 -1.82792,2.17972 3.61211,10.36477 7.17631,10.79743 10.24994,16.98958 13.75057,27.70192 4.22707,12.93532 5.35691,22.75654 4.76326,41.40509 -0.43449,13.64949 -0.98068,17.95389 -3.51034,27.66458 -14.81202,56.85931 -60.48035,100.2861 -119.23014,113.37796 -18.00149,4.01146 -28.82367,4.80943 -68.5,5.05079 -20.35,0.1238 -45.775,0.49826 -56.5,0.83215 -10.725,0.33388 -20.625,0.38763 -22,0.11945 z m 134.5,-8.8561 c 35.30953,-5.42222 64.53539,-20.09879 88.5,-44.44271 20.82694,-21.1566 35.4146,-48.45121 40.6212,-76.00534 1.98558,-10.50802 2.19626,-31.76619 0.41699,-42.0762 -1.67887,-9.72827 -5.24812,-20.58777 -9.64857,-29.35597 -3.79676,-7.5653 -11.19684,-18.64403 -12.45335,-18.64403 -1.25858,0 -12.35192,14.25471 -19.26574,24.75608 -7.03929,10.69196 -15.43298,25.48168 -29.65029,52.24392 -13.49794,25.40814 -25.74637,45.6965 -36.52487,60.5 -26.01917,35.73547 -47.10976,55.59992 -72.47997,68.26621 l -11.4846,5.73379 8.4846,0.63686 c 13.05875,0.98019 42.35174,0.097 53.4846,-1.61261 z m -58.30609,-86.20534 c 16.92308,-5.92135 31.64753,-17.52674 44.72698,-35.25251 6.55603,-8.88499 14.58061,-24.36686 18.0128,-34.75219 5.90684,-17.87331 6.69723,-43.17208 1.78545,-57.14881 -2.84234,-8.08804 -7.45972,-16.28661 -12.51462,-22.22084 l -3.29548,-3.86875 -7.20452,2.56687 c -11.05833,3.93993 -29.26159,13.71682 -38.78469,20.83108 -22.64672,16.91829 -44.2159,44.11242 -52.94845,66.75668 -4.85725,12.59527 -6.29052,20.09797 -6.35559,33.26956 -0.0515,10.42487 0.24106,12.67183 2.22893,17.11826 2.97464,6.65364 7.45178,10.89195 14.75508,13.96799 5.43159,2.28771 6.89298,2.45687 18.4002,2.12986 10.801,-0.30694 13.68168,-0.76869 21.19391,-3.3972 z m 348.93212,73.03313 c -2.76867,-3.10638 -6.62598,-8.86999 -8.5718,-12.80802 -3.69624,-7.48062 -7.55423,-20.70283 -7.55423,-25.89009 0,-4.63242 2.97269,-15.57803 5.74513,-21.15393 5.32434,-10.70822 20.17213,-33.85476 35.60153,-55.5 19.60964,-27.50952 29.43589,-45.85039 33.7905,-63.07056 2.64016,-10.44038 2.37551,-29.3957 -0.48512,-34.74723 -0.97543,-1.82479 -1.57492,-3.84979 -1.3322,-4.5 0.76849,-2.05868 13.49245,25.42085 16.23659,35.06562 2.42329,8.51712 2.59666,10.37397 2.19421,23.5 -0.47802,15.59102 -1.92073,21.35449 -9.57527,38.25217 -6.57295,14.51005 -10.67643,20.75355 -33.28757,50.64759 -20.79013,27.48647 -28.39783,42.62074 -29.58398,58.85241 -0.52535,7.18908 -0.0545,9.38995 3.47678,16.25 0.21234,0.4125 -0.0654,0.75 -0.61728,0.75 -0.55184,0 -3.26862,-2.54158 -6.03729,-5.64796 z M 87.501708,287.57396 C 43.249492,283.92745 12.164382,262.86984 3.3989615,230.60124 c -2.44589,-9.00417 -2.49376,-29.09793 -0.0905,-38 6.5684395,-24.33095 28.0775805,-47.23243 54.4348905,-57.95862 14.519746,-5.90885 23.176896,-7.44612 41.766328,-7.41653 14.25541,0.0227 18.29157,0.37711 25,2.19526 31.03532,8.41135 48.28635,29.5173 46.09007,56.38937 -2.28092,27.90754 -21.07638,48.52744 -51.50111,56.5002 -16.13861,4.2291 -44.330192,3.50666 -42.792542,-1.09661 0.25385,-0.75997 4.15191,-1.00648 12.28769,-0.77708 28.586942,0.80606 52.790762,-8.61882 65.566272,-25.53128 10.92599,-14.46403 12.92526,-33.85559 5.01612,-48.65306 -5.61213,-10.4999 -19.53177,-19.3106 -35.2208,-22.29366 -12.35646,-2.34942 -34.166102,-1.3805 -46.752122,2.07701 -17.705036,4.86376 -32.379436,13.16229 -44.621176,25.23377 -13.88823,13.69506 -20.59375,28.09267 -21.34539,45.83123 -0.72133,17.02343 3.89959,29.35817 15.27859,40.7836 12.16728,12.21691 29.51874,20.0609 51.494396,23.27882 16.81109,2.46168 45.919612,1.54567 62.612442,-1.97033 21.81833,-4.59557 43.65808,-13.72345 62.72706,-26.21665 9.55383,-6.25927 23.87001,-17.28739 25.16797,-19.38753 0.32204,-0.52107 -3.915,-5.26711 -9.41565,-10.54677 -11.56292,-11.09837 -19.24628,-20.78458 -25.02958,-31.55418 -13.65956,-25.43667 -14.54993,-54.47105 -2.25269,-73.45909 12.83674,-19.82108 35.99556,-28.875474 61.41594,-24.011744 22.25519,4.258124 42.32796,18.941904 57.52877,42.083874 2.52888,3.85 4.68492,7.12871 4.79121,7.28602 0.10628,0.15732 13.63953,-13.1515 30.07389,-29.57514 37.17995,-37.155734 57.90312,-53.99265 88.75308,-72.10903 13.46502,-7.90721 39.62756,-20.866505 39.62756,-19.629025 0,0.23284 -2.16985,3.034195 -4.82188,6.225245 -8.92698,10.74136 -25.8252,33.6814 -37.422,50.801926 -23.54089,34.753744 -40.39418,64.246734 -62.85772,110.000004 -11.65807,23.7449 -31.8984,68.05265 -31.8984,69.82822 0,0.18536 2.43059,0.007 5.40131,-0.39595 13.85003,-1.87949 26.40362,-7.60916 37.2601,-17.00614 7.36755,-6.37709 9.33859,-7.16493 9.33859,-3.73273 0,3.03584 -9.17589,11.68862 -17.0867,16.11259 -8.1412,4.55282 -23.02815,9.44517 -31.32837,10.29555 l -6.40064,0.65577 -4.4427,9.64109 -4.44269,9.64109 -11.89945,1.7343 c -6.5447,0.95386 -13.10379,1.73247 -14.57577,1.73025 l -2.67632,-0.004 4.92185,-12.17114 c 2.70701,-6.69413 4.81136,-12.26466 4.67632,-12.37895 -0.13504,-0.1143 -4.74553,-0.96029 -10.24553,-1.87998 -17.78108,-2.97329 -35.42847,-9.64953 -53.05875,-20.07284 -4.19081,-2.47768 -8.14201,-4.19701 -8.78045,-3.82075 -0.63844,0.37626 -4.3108,3.20089 -8.1608,6.27694 -10.10636,8.07473 -12.8559,10.00109 -24.02928,16.83523 -25.64735,15.68708 -54.07107,24.94229 -83.47072,27.17938 -14.66932,1.11623 -17.01598,1.1166 -30.507932,0.005 z M 311.83053,247.60124 c 6.01721,-17.21332 7.28574,-24.64895 7.84767,-46 0.52079,-19.78776 -0.64412,-32.90991 -3.89753,-43.90362 l -1.30317,-4.40363 -22.5494,24.40363 c -12.40217,13.42199 -29.2209,31.11342 -37.37495,39.31428 l -14.82556,14.91066 3.39102,2.78948 c 5.29982,4.35966 21.44622,12.44128 31.89319,15.96323 9.33989,3.14872 27.57538,6.97667 31.49784,6.61194 1.57817,-0.14675 2.70042,-2.18965 5.32089,-9.68597 z m -59.59949,-35.25263 c 8.95323,-8.93894 26.07581,-26.97669 38.05018,-40.08388 l 21.77158,-23.83125 -3.27158,-5.99214 c -7.23086,-13.24384 -19.79662,-26.25829 -30.72348,-31.82054 -12.00857,-6.11288 -26.3511,-8.39164 -38.22917,-6.07389 -17.68537,3.45092 -33.7672,18.4483 -39.91859,37.22675 -2.07871,6.34573 -2.3966,9.2035 -2.37244,21.32758 0.0261,13.07848 0.23241,14.57669 3.13474,22.76121 1.70876,4.81867 4.6212,11.33036 6.4721,14.47042 3.84214,6.51823 24.76932,28.26837 27.19877,28.26837 0.88511,0 8.93466,-7.31368 17.88789,-16.25263 z m 98.23966,-37.24737 c 23.54081,-40.35117 55.30427,-83.791104 90.37213,-123.59357 6.01186,-6.82354 10.80572,-12.54702 10.653,-12.71884 -0.43557,-0.49006 -17.74677,8.38436 -25.22941,12.93361 -25.90545,15.74987 -56.64606,42.311706 -88.03429,76.06723 -9.04637,9.72863 -17.11615,18.64244 -17.93286,19.80845 -1.32828,1.89639 -1.26617,2.98412 0.58878,10.31157 3.37344,13.32575 4.46274,26.42525 3.75626,45.17096 -0.35281,9.36132 -0.9256,18.59559 -1.27287,20.52059 -0.37548,2.08141 3.21494,-3.99825 8.85844,-15 5.21942,-10.175 13.42778,-25.25 18.24082,-33.5 z"
       id="path473" />
  </g>
</svg>
